<svg width="32" height="32" viewBox="0 0 32 32" fill="none" xmlns="http://www.w3.org/2000/svg">
<mask id="mask0_1_64" style="mask-type:alpha" maskUnits="userSpaceOnUse" x="3" y="6" width="24" height="20">
<path d="M4 6C3.44922 6 3 6.44922 3 7C3 7.55078 3.44922 8 4 8H6.21875L8.84375 18.5C9.06641 19.3906 9.86328 20 10.7812 20H22.25C23.1523 20 23.918 19.4023 24.1562 18.5312L26.75 9H10L10.5 11H24.1562L22.25 18H10.7812L8.15625 7.5C7.93359 6.60938 7.13672 6 6.21875 6H4ZM21 20C19.3555 20 18 21.3555 18 23C18 24.6445 19.3555 26 21 26C22.6445 26 24 24.6445 24 23C24 21.3555 22.6445 20 21 20ZM12 20C10.3555 20 9 21.3555 9 23C9 24.6445 10.3555 26 12 26C13.6445 26 15 24.6445 15 23C15 21.3555 13.6445 20 12 20ZM12 22C12.5625 22 13 22.4375 13 23C13 23.5625 12.5625 24 12 24C11.4375 24 11 23.5625 11 23C11 22.4375 11.4375 22 12 22ZM21 22C21.5625 22 22 22.4375 22 23C22 23.5625 21.5625 24 21 24C20.4375 24 20 23.5625 20 23C20 22.4375 20.4375 22 21 22Z" fill="white"/>
</mask>
<g mask="url(#mask0_1_64)">
<path d="M4 6C3.44922 6 3 6.44922 3 7C3 7.55078 3.44922 8 4 8H6.21875L8.84375 18.5C9.06641 19.3906 9.86328 20 10.7812 20H22.25C23.1523 20 23.918 19.4023 24.1562 18.5312L26.75 9H10L10.5 11H24.1562L22.25 18H10.7812L8.15625 7.5C7.93359 6.60938 7.13672 6 6.21875 6H4ZM21 20C19.3555 20 18 21.3555 18 23C18 24.6445 19.3555 26 21 26C22.6445 26 24 24.6445 24 23C24 21.3555 22.6445 20 21 20ZM12 20C10.3555 20 9 21.3555 9 23C9 24.6445 10.3555 26 12 26C13.6445 26 15 24.6445 15 23C15 21.3555 13.6445 20 12 20ZM12 22C12.5625 22 13 22.4375 13 23C13 23.5625 12.5625 24 12 24C11.4375 24 11 23.5625 11 23C11 22.4375 11.4375 22 12 22ZM21 22C21.5625 22 22 22.4375 22 23C22 23.5625 21.5625 24 21 24C20.4375 24 20 23.5625 20 23C20 22.4375 20.4375 22 21 22Z" fill="#222222"/>
</g>
</svg>
