<svg width="28" height="28" viewBox="0 0 28 28" fill="none" xmlns="http://www.w3.org/2000/svg">
<mask id="mask0_1_30" style="mask-type:alpha" maskUnits="userSpaceOnUse" x="7" y="7" width="14" height="14">
<path d="M15.9448 20.75V15.8464H17.6077L17.8559 13.9821H15.9448V12.7747C15.9448 12.2243 16.0942 11.8514 16.8929 11.8514H17.9375V10.1335C17.7611 10.1113 17.144 10.0625 16.441 10.0625C14.9725 10.0625 13.9802 10.9547 13.9802 12.5749V13.9821H12.3125V15.8464H13.9798L13.9765 20.75H8.375C7.75977 20.75 7.25 20.2402 7.25 19.625V8.375C7.25 7.75977 7.75977 7.25 8.375 7.25H19.625C20.2402 7.25 20.75 7.75977 20.75 8.375V19.625C20.75 20.2402 20.2402 20.75 19.625 20.75H15.9448Z" fill="white"/>
</mask>
<g mask="url(#mask0_1_30)">
<path d="M15.9448 20.75V15.8464H17.6077L17.8559 13.9821H15.9448V12.7747C15.9448 12.2243 16.0942 11.8514 16.8929 11.8514H17.9375V10.1335C17.7611 10.1113 17.144 10.0625 16.441 10.0625C14.9725 10.0625 13.9802 10.9547 13.9802 12.5749V13.9821H12.3125V15.8464H13.9798L13.9765 20.75H8.375C7.75977 20.75 7.25 20.2402 7.25 19.625V8.375C7.25 7.75977 7.75977 7.25 8.375 7.25H19.625C20.2402 7.25 20.75 7.75977 20.75 8.375V19.625C20.75 20.2402 20.2402 20.75 19.625 20.75H15.9448Z" fill="white"/>
</g>
</svg>
