<svg width="28" height="28" viewBox="0 0 28 28" fill="none" xmlns="http://www.w3.org/2000/svg">
<path fill-rule="evenodd" clip-rule="evenodd" d="M7.25 11.1457C7.25 8.99416 8.99415 7.25 11.1457 7.25H16.8543C19.0058 7.25 20.75 8.99415 20.75 11.1457V16.8543C20.75 19.0058 19.0059 20.75 16.8543 20.75H11.1457C8.99416 20.75 7.25 19.0059 7.25 16.8543V11.1457ZM8.47198 11.2619V16.7381C8.47198 18.2812 9.72107 19.528 11.2619 19.528H16.7381C18.2812 19.528 19.528 18.2789 19.528 16.7381V11.2619C19.528 9.71876 18.2789 8.47198 16.7381 8.47198H11.2619C9.71876 8.47198 8.47198 9.72107 8.47198 11.2619ZM14 17.4332C12.1039 17.4332 10.5668 15.8961 10.5668 14C10.5668 12.1039 12.1039 10.5668 14 10.5668C15.8961 10.5668 17.4332 12.1039 17.4332 14C17.4332 15.8961 15.8961 17.4332 14 17.4332ZM14 16.2112C15.2212 16.2112 16.2112 15.2212 16.2112 14C16.2112 12.7788 15.2212 11.7888 14 11.7888C12.7788 11.7888 11.7888 12.7788 11.7888 14C11.7888 15.2212 12.7788 16.2112 14 16.2112ZM17.5496 11.2069C17.0996 11.2069 16.7349 10.8422 16.7349 10.3922C16.7349 9.94232 17.0996 9.57759 17.5496 9.57759C17.9995 9.57759 18.3642 9.94232 18.3642 10.3922C18.3642 10.8422 17.9995 11.2069 17.5496 11.2069Z" fill="white"/>
</svg>
