<svg width="28" height="28" viewBox="0 0 28 28" fill="none" xmlns="http://www.w3.org/2000/svg">
<mask id="mask0_1_37" style="mask-type:alpha" maskUnits="userSpaceOnUse" x="7" y="7" width="14" height="14">
<path d="M14 7.25C10.2712 7.25 7.25 10.2712 7.25 14C7.25 16.8608 9.02979 19.302 11.5413 20.2864C11.4819 19.7524 11.427 18.9329 11.5632 18.3484C11.6863 17.8232 12.3542 14.9932 12.3542 14.9932C12.3542 14.9932 12.1543 14.5889 12.1543 13.9912C12.1543 13.053 12.697 12.3521 13.3738 12.3521C13.9495 12.3521 14.2285 12.7849 14.2285 13.3035C14.2285 13.8835 13.8594 14.7493 13.6682 15.5513C13.51 16.2236 14.0066 16.7708 14.668 16.7708C15.8677 16.7708 16.7905 15.5051 16.7905 13.6792C16.7905 12.0642 15.6304 10.9348 13.9714 10.9348C12.051 10.9348 10.9238 12.374 10.9238 13.8638C10.9238 14.4438 11.1479 15.0657 11.427 15.4041C11.4819 15.47 11.4885 15.5293 11.4731 15.5974C11.4204 15.8105 11.3084 16.2698 11.2864 16.3621C11.2556 16.4873 11.1875 16.5137 11.0601 16.4521C10.2163 16.061 9.68897 14.8284 9.68897 13.8374C9.68897 11.7083 11.2358 9.75269 14.1494 9.75269C16.4917 9.75269 18.311 11.4204 18.311 13.6528C18.311 15.9775 16.8433 17.8496 14.8086 17.8496C14.1252 17.8496 13.4814 17.4958 13.2617 17.0762C13.2617 17.0762 12.9233 18.3638 12.8398 18.6802C12.6882 19.2668 12.2773 20.0007 12.0005 20.449C12.6333 20.6445 13.3035 20.75 14 20.75C17.7288 20.75 20.75 17.7288 20.75 14C20.75 10.2712 17.7288 7.25 14 7.25Z" fill="white"/>
</mask>
<g mask="url(#mask0_1_37)">
<path d="M14 7.25C10.2712 7.25 7.25 10.2712 7.25 14C7.25 16.8608 9.02979 19.302 11.5413 20.2864C11.4819 19.7524 11.427 18.9329 11.5632 18.3484C11.6863 17.8232 12.3542 14.9932 12.3542 14.9932C12.3542 14.9932 12.1543 14.5889 12.1543 13.9912C12.1543 13.053 12.697 12.3521 13.3738 12.3521C13.9495 12.3521 14.2285 12.7849 14.2285 13.3035C14.2285 13.8835 13.8594 14.7493 13.6682 15.5513C13.51 16.2236 14.0066 16.7708 14.668 16.7708C15.8677 16.7708 16.7905 15.5051 16.7905 13.6792C16.7905 12.0642 15.6304 10.9348 13.9714 10.9348C12.051 10.9348 10.9238 12.374 10.9238 13.8638C10.9238 14.4438 11.1479 15.0657 11.427 15.4041C11.4819 15.47 11.4885 15.5293 11.4731 15.5974C11.4204 15.8105 11.3084 16.2698 11.2864 16.3621C11.2556 16.4873 11.1875 16.5137 11.0601 16.4521C10.2163 16.061 9.68897 14.8284 9.68897 13.8374C9.68897 11.7083 11.2358 9.75269 14.1494 9.75269C16.4917 9.75269 18.311 11.4204 18.311 13.6528C18.311 15.9775 16.8433 17.8496 14.8086 17.8496C14.1252 17.8496 13.4814 17.4958 13.2617 17.0762C13.2617 17.0762 12.9233 18.3638 12.8398 18.6802C12.6882 19.2668 12.2773 20.0007 12.0005 20.449C12.6333 20.6445 13.3035 20.75 14 20.75C17.7288 20.75 20.75 17.7288 20.75 14C20.75 10.2712 17.7288 7.25 14 7.25Z" fill="white"/>
</g>
</svg>
