<svg width="28" height="28" viewBox="0 0 28 28" fill="none" xmlns="http://www.w3.org/2000/svg">
<path fill-rule="evenodd" clip-rule="evenodd" d="M20.75 9.67606C20.2533 9.89544 19.7195 10.0451 19.1593 10.1109C19.7308 9.76831 20.1701 9.2255 20.3765 8.57919C19.8427 8.89587 19.2493 9.1265 18.6187 9.25194C18.113 8.71363 17.3924 8.375 16.5971 8.375C15.0676 8.375 13.8262 9.61644 13.8262 11.1459C13.8262 11.3636 13.8504 11.5745 13.8987 11.7764C11.5964 11.6623 9.55512 10.5592 8.1905 8.88238C7.95087 9.29131 7.81475 9.76831 7.81475 10.2757C7.81475 11.2359 8.30244 12.0841 9.04719 12.5808C8.59269 12.5651 8.16631 12.4424 7.79281 12.2332C7.79281 12.2467 7.79281 12.2574 7.79281 12.2686C7.79281 13.6113 8.74625 14.7318 10.0141 14.9844C9.78125 15.0479 9.53713 15.0834 9.28456 15.0834C9.10681 15.0834 8.93075 15.0659 8.76369 15.0328C9.11525 16.1336 10.1396 16.9334 11.3501 16.9576C10.4028 17.7001 9.2075 18.1417 7.9115 18.1417C7.68706 18.1417 7.46769 18.1287 7.25 18.1023C8.47625 18.8892 9.93088 19.3482 11.4952 19.3482C16.5903 19.3482 19.3769 15.1273 19.3769 11.4665C19.3769 11.3478 19.3724 11.2269 19.3679 11.1082C19.9085 10.7173 20.3787 10.2296 20.75 9.67606Z" fill="white"/>
</svg>
