<svg width="28" height="28" viewBox="0 0 28 28" fill="none" xmlns="http://www.w3.org/2000/svg">
<mask id="mask0_1_23" style="mask-type:alpha" maskUnits="userSpaceOnUse" x="6" y="8" width="16" height="12">
<path d="M14 8.375C16.1184 8.375 17.9904 8.59494 19.1328 8.762C20.0778 8.90038 20.84 9.61194 21.0138 10.5547C21.1629 11.3591 21.3125 12.5347 21.3125 14C21.3125 15.4653 21.1606 16.6409 21.0138 17.4453C20.84 18.3881 20.0778 19.1019 19.1328 19.238C17.9859 19.4051 16.1071 19.625 14 19.625C11.8929 19.625 10.0141 19.4051 8.86719 19.238C7.92219 19.1019 7.16 18.3881 6.98619 17.4453C6.83937 16.6432 6.6875 15.4698 6.6875 14C6.6875 12.5302 6.83937 11.3568 6.98619 10.5547C7.16 9.61194 7.92219 8.90038 8.86719 8.762C10.0096 8.59494 11.8816 8.375 14 8.375ZM12.3125 10.7831V17.2169L13.1562 16.7422L17.0938 14.4922L17.9375 14L17.0938 13.5078L13.1562 11.2578L12.3125 10.7831Z" fill="white"/>
</mask>
<g mask="url(#mask0_1_23)">
<path d="M14 8.375C16.1184 8.375 17.9904 8.59494 19.1328 8.762C20.0778 8.90038 20.84 9.61194 21.0138 10.5547C21.1629 11.3591 21.3125 12.5347 21.3125 14C21.3125 15.4653 21.1606 16.6409 21.0138 17.4453C20.84 18.3881 20.0778 19.1019 19.1328 19.238C17.9859 19.4051 16.1071 19.625 14 19.625C11.8929 19.625 10.0141 19.4051 8.86719 19.238C7.92219 19.1019 7.16 18.3881 6.98619 17.4453C6.83937 16.6432 6.6875 15.4698 6.6875 14C6.6875 12.5302 6.83937 11.3568 6.98619 10.5547C7.16 9.61194 7.92219 8.90038 8.86719 8.762C10.0096 8.59494 11.8816 8.375 14 8.375ZM12.3125 10.7831V17.2169L13.1562 16.7422L17.0938 14.4922L17.9375 14L17.0938 13.5078L13.1562 11.2578L12.3125 10.7831Z" fill="white"/>
</g>
</svg>
